<svg width="1440" height="1070" viewBox="0 0 1440 1070" fill="none" xmlns="http://www.w3.org/2000/svg">
<g clip-path="url(#clip0_297_1086)">
<rect width="1440" height="1070" fill="white"/>
<rect width="1440" height="1070" fill="#C5A800"/>
<g filter="url(#filter0_d_297_1086)">
<path fill-rule="evenodd" clip-rule="evenodd" d="M272.5 1380C519.647 1380 720 1179.65 720 932.5C720 800.376 401.153 909.916 310.095 828C230.823 756.687 387.523 485 272.5 485C25.3521 485 -175 685.353 -175 932.5C-175 1179.65 25.3521 1380 272.5 1380Z" fill="#0B8800"/>
</g>
<g filter="url(#filter1_d_297_1086)">
<path fill-rule="evenodd" clip-rule="evenodd" d="M1458 576.625C1705.15 576.625 1905.5 376.272 1905.5 129.125C1905.5 -2.99979 1586.65 106.54 1495.6 24.6245C1416.32 -46.6886 1573.02 -318.375 1458 -318.375C1210.85 -318.375 1010.5 -118.023 1010.5 129.125C1010.5 376.272 1210.85 576.625 1458 576.625Z" fill="#0B8800"/>
</g>
<mask id="mask0_297_1086" style="mask-type:alpha" maskUnits="userSpaceOnUse" x="-68" y="-379" width="1043" height="1036">
<path fill-rule="evenodd" clip-rule="evenodd" d="M-59.5295 52.0848C-109.495 335.454 79.7157 605.675 363.085 655.64C514.573 682.352 453.44 294.63 565.77 206.788C663.561 130.315 943.386 364.907 966.64 233.026C1016.61 -50.3427 827.395 -320.564 544.026 -370.529C260.657 -420.495 -9.56393 -231.284 -59.5295 52.0848Z" fill="#0B8800"/>
</mask>
<g mask="url(#mask0_297_1086)">
<g filter="url(#filter2_d_297_1086)">
<path fill-rule="evenodd" clip-rule="evenodd" d="M203.512 -209.946C-28.7301 -125.417 -148.475 131.378 -63.9461 363.62C-18.7569 487.777 243.396 275.791 356.98 321.623C455.861 361.522 401.534 670.419 509.621 631.079C741.863 546.549 861.608 289.755 777.079 57.5124C692.55 -174.73 435.755 -294.476 203.512 -209.946Z" fill="#0B8800"/>
<path fill-rule="evenodd" clip-rule="evenodd" d="M203.512 -209.946C-28.7301 -125.417 -148.475 131.378 -63.9461 363.62C-18.7569 487.777 243.396 275.791 356.98 321.623C455.861 361.522 401.534 670.419 509.621 631.079C741.863 546.549 861.608 289.755 777.079 57.5124C692.55 -174.73 435.755 -294.476 203.512 -209.946Z" fill="#0B8800"/>
</g>
<g filter="url(#filter3_d_297_1086)">
<path fill-rule="evenodd" clip-rule="evenodd" d="M2006.38 1031.96C2061.52 719.221 1852.7 420.992 1539.96 365.848C1372.77 336.368 1440.24 764.276 1316.27 861.223C1208.34 945.622 899.512 686.715 873.848 832.265C818.703 1145 1027.53 1443.23 1340.26 1498.38C1653 1553.52 1951.23 1344.7 2006.38 1031.96Z" fill="#0B8800"/>
</g>
</g>
<g filter="url(#filter4_d_297_1086)">
<path fill-rule="evenodd" clip-rule="evenodd" d="M1631.3 1158.74C1747.44 1025.14 1731.66 821.289 1596.07 703.42C1523.58 640.408 1433.85 865.004 1346.13 875.159C1269.75 883.999 1194.33 669.722 1140.28 731.899C1024.15 865.496 1039.92 1069.35 1175.51 1187.22C1311.1 1305.09 1515.17 1292.34 1631.3 1158.74Z" fill="#0B8800"/>
</g>
</g>
<defs>
<filter id="filter0_d_297_1086" x="-179" y="485" width="903" height="903" filterUnits="userSpaceOnUse" color-interpolation-filters="sRGB">
<feFlood flood-opacity="0" result="BackgroundImageFix"/>
<feColorMatrix in="SourceAlpha" type="matrix" values="0 0 0 0 0 0 0 0 0 0 0 0 0 0 0 0 0 0 127 0" result="hardAlpha"/>
<feOffset dy="4"/>
<feGaussianBlur stdDeviation="2"/>
<feComposite in2="hardAlpha" operator="out"/>
<feColorMatrix type="matrix" values="0 0 0 0 0 0 0 0 0 0 0 0 0 0 0 0 0 0 0.25 0"/>
<feBlend mode="normal" in2="BackgroundImageFix" result="effect1_dropShadow_297_1086"/>
<feBlend mode="normal" in="SourceGraphic" in2="effect1_dropShadow_297_1086" result="shape"/>
</filter>
<filter id="filter1_d_297_1086" x="1006.5" y="-318.375" width="903" height="903" filterUnits="userSpaceOnUse" color-interpolation-filters="sRGB">
<feFlood flood-opacity="0" result="BackgroundImageFix"/>
<feColorMatrix in="SourceAlpha" type="matrix" values="0 0 0 0 0 0 0 0 0 0 0 0 0 0 0 0 0 0 127 0" result="hardAlpha"/>
<feOffset dy="4"/>
<feGaussianBlur stdDeviation="2"/>
<feComposite in2="hardAlpha" operator="out"/>
<feColorMatrix type="matrix" values="0 0 0 0 0 0 0 0 0 0 0 0 0 0 0 0 0 0 0.25 0"/>
<feBlend mode="normal" in2="BackgroundImageFix" result="effect1_dropShadow_297_1086"/>
<feBlend mode="normal" in="SourceGraphic" in2="effect1_dropShadow_297_1086" result="shape"/>
</filter>
<filter id="filter2_d_297_1086" x="-95.0552" y="-237.056" width="2342.76" height="879.588" filterUnits="userSpaceOnUse" color-interpolation-filters="sRGB">
<feFlood flood-opacity="0" result="BackgroundImageFix"/>
<feColorMatrix in="SourceAlpha" type="matrix" values="0 0 0 0 0 0 0 0 0 0 0 0 0 0 0 0 0 0 127 0" result="hardAlpha"/>
<feOffset dy="4"/>
<feGaussianBlur stdDeviation="2"/>
<feComposite in2="hardAlpha" operator="out"/>
<feColorMatrix type="matrix" values="0 0 0 0 0 0 0 0 0 0 0 0 0 0 0 0 0 0 0.25 0"/>
<feBlend mode="normal" in2="BackgroundImageFix" result="effect1_dropShadow_297_1086"/>
<feBlend mode="normal" in="SourceGraphic" in2="effect1_dropShadow_297_1086" result="shape"/>
</filter>
<filter id="filter3_d_297_1086" x="861.016" y="364.395" width="1158.19" height="1150.81" filterUnits="userSpaceOnUse" color-interpolation-filters="sRGB">
<feFlood flood-opacity="0" result="BackgroundImageFix"/>
<feColorMatrix in="SourceAlpha" type="matrix" values="0 0 0 0 0 0 0 0 0 0 0 0 0 0 0 0 0 0 127 0" result="hardAlpha"/>
<feOffset dy="4"/>
<feGaussianBlur stdDeviation="2"/>
<feComposite in2="hardAlpha" operator="out"/>
<feColorMatrix type="matrix" values="0 0 0 0 0 0 0 0 0 0 0 0 0 0 0 0 0 0 0.25 0"/>
<feBlend mode="normal" in2="BackgroundImageFix" result="effect1_dropShadow_297_1086"/>
<feBlend mode="normal" in="SourceGraphic" in2="effect1_dropShadow_297_1086" result="shape"/>
</filter>
<filter id="filter4_d_297_1086" x="1058.53" y="692.288" width="654.521" height="583.623" filterUnits="userSpaceOnUse" color-interpolation-filters="sRGB">
<feFlood flood-opacity="0" result="BackgroundImageFix"/>
<feColorMatrix in="SourceAlpha" type="matrix" values="0 0 0 0 0 0 0 0 0 0 0 0 0 0 0 0 0 0 127 0" result="hardAlpha"/>
<feOffset dy="4"/>
<feGaussianBlur stdDeviation="2"/>
<feComposite in2="hardAlpha" operator="out"/>
<feColorMatrix type="matrix" values="0 0 0 0 0 0 0 0 0 0 0 0 0 0 0 0 0 0 0.25 0"/>
<feBlend mode="normal" in2="BackgroundImageFix" result="effect1_dropShadow_297_1086"/>
<feBlend mode="normal" in="SourceGraphic" in2="effect1_dropShadow_297_1086" result="shape"/>
</filter>
<clipPath id="clip0_297_1086">
<rect width="1440" height="1070" fill="white"/>
</clipPath>
</defs>
</svg>
